<?xml version="1.0" standalone="no"?>
<!DOCTYPE svg PUBLIC "-//W3C//DTD SVG 20010904//EN"
 "http://www.w3.org/TR/2001/REC-SVG-20010904/DTD/svg10.dtd">
<svg version="1.0" xmlns="http://www.w3.org/2000/svg"
 width="500.000000pt" height="500.000000pt" viewBox="0 0 500.000000 500.000000"
 preserveAspectRatio="xMidYMid meet">

<g transform="translate(0.000000,500.000000) scale(0.100000,-0.100000)"
fill="#000000" stroke="none">
<path d="M1372 3558 c-7 -7 -12 -42 -12 -89 l0 -76 -51 -7 c-38 -5 -59 -15
-80 -36 l-29 -28 0 -614 c0 -470 3 -619 13 -638 7 -14 28 -33 47 -43 33 -16
94 -17 952 -15 l917 3 30 29 31 30 0 624 0 624 -29 28 c-21 21 -42 31 -80 36
l-51 7 0 76 c0 47 -5 82 -12 89 -9 9 -99 12 -342 12 -328 0 -331 0 -383 -24
-28 -13 -61 -37 -72 -53 l-22 -29 -42 41 c-24 22 -61 46 -84 53 -57 17 -684
17 -701 0z m718 -70 c18 -13 43 -36 54 -51 21 -28 21 -38 24 -608 l2 -579
-375 0 -375 0 0 630 0 630 319 0 c313 0 319 0 351 -22z m880 -608 l0 -630
-372 2 -373 3 0 577 c0 569 0 577 21 605 11 15 36 38 54 51 32 22 38 22 351
22 l319 0 0 -630z m-1608 -112 l3 -563 415 -5 c228 -3 602 -3 830 0 l415 5 3
563 2 562 39 0 c75 0 71 38 71 -626 0 -391 -4 -602 -10 -615 -10 -19 -31 -19
-930 -19 -822 0 -920 2 -934 16 -14 14 -16 83 -16 607 0 667 -3 637 70 637
l40 0 2 -562z"/>
<path d="M1580 3255 l0 -25 213 2 c204 3 212 4 212 23 0 19 -8 20 -212 23
l-213 2 0 -25z"/>
<path d="M1593 3083 c-7 -2 -13 -16 -13 -29 l0 -24 210 0 c186 0 211 2 217 16
14 37 -21 44 -216 43 -102 0 -192 -3 -198 -6z"/>
<path d="M1580 2866 c0 -13 7 -27 16 -30 9 -3 98 -6 198 -6 191 0 227 7 213
44 -6 14 -31 16 -217 16 l-210 0 0 -24z"/>
<path d="M1577 2677 c-13 -34 6 -37 219 -35 201 3 209 4 209 23 0 19 -8 20
-211 23 -171 2 -213 0 -217 -11z"/>
<path d="M1587 2493 c-13 -12 -7 -41 9 -47 27 -10 374 -7 395 4 23 13 25 36 3
44 -21 8 -399 8 -407 -1z"/>
<path d="M2384 3265 c-13 -32 7 -35 217 -35 l209 0 0 25 0 25 -210 0 c-175 0
-212 -2 -216 -15z"/>
<path d="M2395 3076 c-11 -8 -16 -19 -12 -30 6 -14 31 -16 217 -16 l210 0 0
24 c0 13 -7 27 -16 30 -9 3 -98 6 -198 6 -137 0 -187 -3 -201 -14z"/>
<path d="M2383 2874 c-14 -37 22 -44 218 -44 155 0 190 3 203 15 8 9 13 22 10
30 -5 13 -40 15 -215 15 -185 0 -210 -2 -216 -16z"/>
<path d="M2384 2675 c-13 -32 7 -35 216 -35 212 0 225 2 212 38 -7 19 -421 17
-428 -3z"/>
<path d="M2389 2484 c-11 -14 -10 -18 6 -30 14 -11 61 -14 204 -14 102 0 192
4 199 9 8 5 12 17 10 27 -3 18 -17 19 -204 22 -176 2 -203 0 -215 -14z"/>
<path d="M3210 3261 c0 -15 10 -19 57 -25 104 -12 175 -60 210 -143 26 -63 19
-78 -45 -96 -63 -17 -118 -55 -152 -104 -44 -64 -49 -97 -50 -320 0 -190 2
-218 21 -267 41 -111 165 -185 285 -173 136 14 228 100 254 238 14 74 12 342
-3 416 -23 107 -100 188 -204 215 -34 8 -43 15 -43 32 0 44 -32 116 -71 160
-48 54 -124 86 -204 86 -47 0 -55 -3 -55 -19z m280 -318 c0 -9 -14 -28 -31
-42 -27 -23 -32 -34 -36 -92 -7 -80 9 -136 43 -151 45 -21 24 -28 -81 -28
l-105 0 0 78 c1 119 41 190 135 233 50 23 75 24 75 2z m126 -7 c86 -40 121
-101 131 -228 l6 -78 -107 0 c-58 0 -106 3 -106 6 0 3 14 19 30 34 29 27 30
32 30 110 0 77 -2 83 -30 112 -30 30 -40 68 -17 68 6 0 35 -11 63 -24z m-78
-78 c16 -16 16 -140 0 -156 -16 -16 -33 -15 -52 4 -19 18 -22 114 -6 145 12
21 40 25 58 7z m212 -357 c0 -165 -34 -243 -130 -293 -88 -47 -190 -35 -262
30 -64 58 -78 98 -78 230 l0 112 235 0 235 0 0 -79z"/>
<path d="M3591 1896 c-28 -30 -19 -56 10 -30 18 16 20 16 38 0 29 -26 38 0 10
30 -12 13 -25 24 -29 24 -4 0 -17 -11 -29 -24z"/>
<path d="M1825 1810 c-48 -19 -63 -74 -30 -110 10 -11 40 -27 67 -36 27 -9 52
-22 55 -30 15 -39 -62 -60 -99 -28 -14 14 -20 14 -33 4 -22 -18 -19 -28 18
-50 60 -37 150 -16 163 37 12 47 -7 76 -64 99 -63 25 -77 37 -69 58 7 18 49
21 79 5 16 -9 24 -8 36 4 13 14 11 18 -19 36 -35 22 -70 26 -104 11z"/>
<path d="M1210 1803 c0 -5 23 -66 51 -136 68 -170 74 -169 145 11 l52 132 -27
0 c-25 0 -30 -7 -61 -95 -18 -51 -37 -92 -40 -90 -4 3 -22 45 -40 95 -28 79
-35 90 -56 90 -13 0 -24 -3 -24 -7z"/>
<path d="M1520 1675 l0 -135 95 0 c95 0 95 0 95 25 0 24 -2 25 -70 25 l-70 0
0 35 0 35 55 0 c52 0 55 1 55 25 0 24 -3 25 -55 25 -54 0 -55 0 -55 30 l0 30
70 0 c63 0 70 2 70 20 0 19 -7 20 -95 20 l-95 0 0 -135z"/>
<path d="M2020 1790 c0 -16 7 -20 35 -20 l35 0 0 -115 0 -115 25 0 25 0 0 115
0 115 40 0 c33 0 40 3 40 20 0 19 -7 20 -100 20 -93 0 -100 -1 -100 -20z"/>
<path d="M2290 1675 l0 -135 25 0 25 0 0 135 0 135 -25 0 -25 0 0 -135z"/>
<path d="M2430 1675 l0 -135 73 0 c79 0 111 14 127 56 10 25 -5 84 -21 84 -6
0 -5 8 1 19 16 31 12 69 -10 91 -16 16 -33 20 -95 20 l-75 0 0 -135z m137 79
c11 -29 -11 -49 -53 -49 -37 0 -39 2 -42 33 -3 32 -3 32 43 32 33 0 47 -4 52
-16z m11 -125 c4 -35 -19 -51 -65 -47 -36 3 -38 5 -41 41 l-3 38 53 -3 c49 -3
53 -5 56 -29z"/>
<path d="M2690 1725 c0 -101 16 -147 59 -169 40 -21 79 -20 118 4 39 24 53 67
53 173 0 75 -1 77 -24 77 -23 0 -24 -2 -28 -95 -3 -104 -15 -127 -63 -127 -48
0 -60 23 -63 127 -4 93 -5 95 -28 95 -23 0 -24 -2 -24 -85z"/>
<path d="M3000 1675 l0 -135 85 0 c84 0 85 0 85 25 0 24 -3 25 -60 25 l-60 0
0 110 0 110 -25 0 -25 0 0 -135z"/>
<path d="M3265 1684 c-27 -70 -51 -131 -53 -135 -2 -5 7 -9 21 -9 16 0 28 8
35 25 10 23 17 25 70 25 53 0 60 -2 70 -25 12 -26 52 -36 52 -12 -1 6 -23 66
-49 132 -42 102 -52 120 -72 123 -22 2 -28 -8 -74 -124z m98 1 l16 -45 -40 0
c-21 0 -39 1 -39 3 0 18 34 96 40 92 4 -3 15 -25 23 -50z"/>
<path d="M3520 1675 l0 -135 100 0 100 0 0 25 c0 24 -2 25 -75 25 l-75 0 0 35
0 35 55 0 c52 0 55 1 55 25 0 24 -3 25 -55 25 -54 0 -55 0 -55 30 l0 30 70 0
c63 0 70 2 70 20 0 19 -7 20 -95 20 l-95 0 0 -135z"/>
</g>
</svg>
